<svg version="1.1" id="Layer_1" xmlns="http://www.w3.org/2000/svg" xmlns:xlink="http://www.w3.org/1999/xlink" x="0px" y="0px"
	 width="100%" viewBox="0 0 1024 736" enable-background="new 0 0 1024 736" xml:space="preserve">
<path fill="#000000" opacity="1.000000" stroke="none" 
	d="
M485.744965,562.355225 
	C433.966034,536.440918 398.770660,496.661316 381.618134,441.478180 
	C374.809601,419.573792 371.732697,396.966095 370.916779,374.117706 
	C370.078522,350.644531 370.722260,327.170502 372.606262,303.737122 
	C372.863098,300.542694 374.552704,299.464355 377.122162,298.705719 
	C389.413086,295.076843 401.570282,290.880554 414.030457,287.985229 
	C420.770660,286.419037 423.454559,282.518982 424.852112,276.689362 
	C425.586700,273.625031 425.691833,270.362762 426.749084,267.430725 
	C432.062195,252.696579 453.061371,248.323212 465.230530,259.353119 
	C467.446259,261.361450 469.347809,263.711914 471.479889,265.817932 
	C474.532104,268.832794 477.775024,268.730164 480.677979,265.746826 
	C483.704071,262.636902 486.307312,259.257050 486.910858,254.643692 
	C489.711243,233.238937 514.066528,229.312180 526.583496,238.444626 
	C531.574951,242.086441 534.699280,246.747406 536.088623,252.617401 
	C536.952515,256.267029 538.371887,259.517517 540.930786,262.312958 
	C545.338074,267.127502 549.686218,267.288727 554.082581,262.583099 
	C555.901184,260.636566 557.551270,258.533173 559.357239,256.574188 
	C566.148987,249.207077 574.478210,247.382645 583.955322,249.891418 
	C593.386292,252.387970 598.864014,258.695221 600.015564,268.167267 
	C600.773621,274.402466 604.406494,279.251068 606.452942,284.834290 
	C607.288330,287.113373 609.920471,287.161835 611.957336,287.764893 
	C624.406555,291.450714 636.849609,295.158936 649.325073,298.754242 
	C652.843445,299.768250 654.239014,301.678711 654.490112,305.503876 
	C656.269226,332.612122 656.917236,359.717804 655.191162,386.848175 
	C655.007019,389.742615 655.554138,392.361847 656.536682,395.103149 
	C659.984741,404.722931 659.191040,413.798248 652.041138,421.659454 
	C650.390198,423.474609 649.667175,425.520142 649.104187,427.846161 
	C632.734558,495.484344 591.514893,541.503052 527.734070,568.399292 
	C517.105957,572.881165 507.831055,573.080872 497.940887,567.816345 
	C494.128204,565.786804 490.050232,564.255676 485.744965,562.355225 
M488.824585,497.794525 
	C488.130310,496.068054 487.385986,494.496185 485.257141,494.002930 
	C480.815125,492.973724 476.849884,490.915253 473.212830,488.156128 
	C470.784760,486.314209 468.477753,487.088409 466.439026,488.939362 
	C461.993958,492.975128 462.386566,498.615601 467.383270,502.118256 
	C473.159271,506.167114 479.924896,506.279938 486.562805,506.627350 
	C495.437531,507.091797 504.222504,507.803467 512.038574,512.620178 
	C513.882263,513.756348 516.078491,514.755859 516.510864,518.937073 
	C500.300476,508.974304 482.798920,514.507751 466.472107,510.579224 
	C466.869446,511.782288 467.361481,512.445312 467.986694,512.939880 
	C480.754364,523.039368 494.823883,530.879761 509.862122,537.039429 
	C512.145996,537.974915 514.344849,537.961670 516.641541,537.002930 
	C554.963928,521.004944 584.708923,495.571838 603.279541,457.973450 
	C605.447388,453.584473 608.133301,449.222321 608.284790,443.972992 
	C603.285583,441.023132 598.427734,439.012665 592.356873,438.980591 
	C578.581909,438.907745 567.424683,432.616516 558.562256,422.203522 
	C557.662598,421.146515 556.277832,420.110321 557.090576,418.273865 
	C558.787537,417.394348 560.338074,418.492981 561.887512,418.775330 
	C572.434326,420.697083 582.755432,420.027527 592.938965,416.644287 
	C595.822937,415.686157 597.471436,413.982880 598.904602,411.211884 
	C603.319580,402.675995 609.091248,395.206818 618.307373,391.292480 
	C620.580933,390.326874 621.648682,388.993683 621.856262,386.491699 
	C623.430725,367.515778 623.123474,348.552643 621.821899,329.579498 
	C621.620544,326.644287 620.346252,325.015259 617.557556,324.249359 
	C611.458191,322.574158 605.347473,320.919434 599.324585,318.995697 
	C596.082703,317.960236 594.433289,318.947205 593.130981,321.960815 
	C587.497131,334.998383 577.451416,343.676025 564.955261,349.785889 
	C563.310608,350.589966 561.603516,352.191467 558.931885,350.340881 
	C562.711304,343.744415 566.047424,336.908356 567.308472,329.276337 
	C568.163879,324.099243 568.540894,319.308807 562.676880,316.576874 
	C561.539429,316.046997 560.325684,314.955750 559.859131,313.828705 
	C556.838806,306.532501 550.479919,305.774719 543.887634,305.371857 
	C542.224365,305.270172 540.558167,305.218414 538.893799,305.132874 
	C527.501099,304.547363 521.116211,309.498657 518.937561,320.669098 
	C518.588013,322.461609 518.549561,324.317841 518.157288,326.098358 
	C517.244690,330.240540 517.952454,334.634247 516.531067,338.726837 
	C513.795471,338.665192 512.865906,336.664917 511.658600,335.220245 
	C506.171783,328.654663 501.755951,321.443298 498.706909,313.405823 
	C496.558136,307.741364 492.401062,304.954773 486.485962,305.235168 
	C483.167664,305.392395 479.872406,305.993011 476.554962,306.224762 
	C473.689362,306.425049 472.067047,307.762604 471.172272,310.527588 
	C469.646393,315.242737 466.800110,319.216217 462.818420,322.112061 
	C459.448639,324.562866 458.958313,327.464935 459.709442,331.272278 
	C461.013428,337.881989 463.320251,344.063782 466.444427,350.003967 
	C467.217102,351.473022 468.896393,352.891052 467.730133,354.906372 
	C467.306610,354.978912 466.967468,355.123840 466.662323,355.071289 
	C466.011597,354.959320 465.355530,354.803619 464.741577,354.563751 
	C449.929596,348.776581 438.704315,339.166870 433.091858,323.972290 
	C431.542297,319.777100 429.434967,318.482849 425.228516,319.811829 
	C420.628937,321.264954 415.975342,322.634064 411.254486,323.592590 
	C406.282959,324.602020 404.364655,327.458527 404.314301,332.323792 
	C404.106018,352.466034 402.901978,372.625397 405.352448,392.716187 
	C406.641205,403.282349 408.113464,413.825226 411.121460,424.079407 
	C411.593140,425.687378 412.005280,427.429016 414.083588,427.630981 
	C415.821381,427.799866 416.711365,426.529755 417.646759,425.304626 
	C420.829315,421.136444 423.345032,416.840363 422.712738,411.209564 
	C422.362335,408.089081 422.759949,404.886047 422.798706,401.719910 
	C422.825317,399.542023 423.359680,397.789581 425.862762,397.273438 
	C427.155151,397.006958 428.749084,396.634735 428.474426,394.872955 
	C428.236938,393.349518 427.273224,392.155762 425.451263,392.239227 
	C418.892426,401.180267 415.089661,403.942749 410.477875,402.886780 
	C412.188507,399.334595 416.910004,399.290894 418.493866,395.793854 
	C420.804291,390.692657 422.687225,385.007843 430.120544,386.935181 
	C430.416626,385.018494 429.523956,384.246246 428.535370,384.380859 
	C423.697784,385.039642 422.035278,381.747284 420.873657,378.175812 
	C419.330872,373.432434 416.308899,370.187469 411.980408,367.927307 
	C410.889160,367.357452 409.422821,366.714630 410.884399,364.022369 
	C414.952087,366.822601 420.625488,367.329956 422.356903,372.983337 
	C424.171997,378.909851 428.243500,379.999237 432.556671,379.573486 
	C440.093658,367.989594 431.003265,361.601990 425.201447,354.011505 
	C430.358368,355.946198 433.166901,360.029755 436.309540,363.697021 
	C440.361420,368.425262 445.651764,368.375671 449.541260,363.468445 
	C452.446808,359.802521 455.546997,356.343262 459.863342,353.355652 
	C460.418823,356.662750 458.543610,357.685638 457.249481,358.671844 
	C449.802032,364.347229 449.459473,371.724030 451.838989,379.853821 
	C457.652527,380.015320 461.970062,378.347107 463.680206,371.902191 
	C464.561737,368.580109 473.305389,364.553467 476.502869,365.172913 
	C476.785004,366.151489 476.269012,366.890808 475.502808,367.208496 
	C469.191650,369.825378 465.514984,374.671326 463.523376,381.027954 
	C462.768066,383.438782 461.035217,384.336609 458.522247,384.183533 
	C456.126129,384.037537 454.777191,385.006683 455.559235,388.125183 
	C460.639862,385.617584 463.148895,388.229248 464.906006,392.365875 
	C466.310272,395.671906 468.473083,398.322662 471.537506,400.285553 
	C472.502350,400.903595 474.094635,401.547943 472.952148,403.647766 
	C467.128815,401.980377 463.295288,397.880432 460.135590,392.864532 
	C458.619507,394.380554 457.856842,395.946075 459.645477,396.834625 
	C462.526733,398.265961 462.549072,400.774261 462.576599,403.194824 
	C462.689453,413.128235 463.815033,422.662384 471.667511,429.948273 
	C471.733643,430.009644 471.621124,430.263519 471.512085,430.877808 
	C466.019501,430.978455 465.320251,425.806732 462.651062,422.897614 
	C459.541412,419.508392 459.625336,415.082275 458.452332,409.900391 
	C456.987823,417.041382 455.702454,423.067505 452.444611,428.406769 
	C447.518097,436.480865 438.684387,436.682037 433.517365,428.721161 
	C429.677032,422.804291 428.521698,416.115875 428.441040,409.159637 
	C428.421478,407.473419 429.320404,405.500000 427.296448,403.924408 
	C425.693787,405.649811 426.096344,407.752167 426.322723,409.534943 
	C427.507172,418.863281 422.659088,425.420166 416.345276,431.128204 
	C414.112946,433.146332 414.220276,434.898193 415.018097,437.277466 
	C422.880188,460.723328 435.369171,481.356964 452.566376,499.124847 
	C453.503601,500.093231 454.333771,501.686768 456.211487,500.922028 
	C455.672638,488.909973 456.744171,485.361938 463.739807,479.620514 
	C466.949341,476.986420 469.021729,473.832336 470.870972,470.216553 
	C476.906372,458.415741 486.327576,450.717010 499.461304,448.094696 
	C510.118378,445.966858 520.307251,448.117188 530.216003,452.131470 
	C532.152344,452.915924 533.984863,454.314362 536.455627,453.582153 
	C537.306091,451.371277 537.382324,448.605225 540.438232,447.828705 
	C548.442993,445.794647 549.360596,446.147705 553.836304,453.424255 
	C554.180542,453.983948 554.550293,454.667480 555.088318,454.947327 
	C561.759521,458.418182 567.826904,462.765442 573.856995,467.230377 
	C575.339111,468.327820 577.192444,468.117279 577.572998,470.853455 
	C577.997803,473.907532 575.934265,474.288513 574.443604,475.717529 
	C572.132874,477.932800 568.057983,479.037018 569.021240,483.608093 
	C563.660095,481.104767 553.329285,482.395172 550.001160,485.874817 
	C551.550232,490.902649 559.923584,486.348145 560.315979,493.269379 
	C555.107971,497.851929 550.462280,493.291260 545.631897,492.371002 
	C544.179871,492.094391 542.217468,490.241577 541.546387,492.906250 
	C540.997192,495.086517 543.023926,495.521210 544.783508,495.683807 
	C547.579834,495.942261 550.569336,495.842346 551.723022,499.544312 
	C549.955261,501.290161 548.200378,503.185822 545.391602,502.328796 
	C539.703674,500.593262 533.637573,499.621185 529.098083,495.275452 
	C525.070557,491.419891 519.940308,491.656555 515.021729,491.571899 
	C512.775818,491.533295 510.023712,491.831024 508.717804,494.818176 
	C509.433441,495.291290 509.939850,495.673553 510.488434,495.980377 
	C512.553467,497.135345 516.285156,497.777222 514.710388,500.869232 
	C513.463562,503.317322 510.258911,504.255493 506.950867,502.892487 
	C504.210846,501.763519 501.223297,501.190765 498.306702,500.547211 
	C495.287872,499.881165 491.876678,500.932892 488.824585,497.794525 
M471.813354,527.737183 
	C434.471313,502.147125 411.370209,466.791290 400.881592,423.106720 
	C392.784454,389.382751 392.949982,355.124451 395.715546,320.787689 
	C395.934296,318.071655 397.639282,317.208374 399.903198,316.614319 
	C406.020660,315.008942 412.110138,313.297394 418.219238,311.659637 
	C421.198547,310.860992 423.807770,309.783569 422.472504,305.896576 
	C421.378235,302.711151 419.671936,300.850250 415.754364,302.141357 
	C410.385834,303.910675 404.838470,305.128723 399.413177,306.736237 
	C387.074188,310.392303 386.745148,310.412170 386.082947,322.849548 
	C384.541504,351.801636 384.053772,380.707825 389.048676,409.493988 
	C401.399231,480.671204 441.446289,529.236328 508.023254,556.429260 
	C511.292572,557.764587 514.358093,557.868958 517.679810,556.568054 
	C569.448364,536.294128 607.249817,501.713776 627.702576,449.328522 
	C628.528564,447.212799 629.578735,445.075439 628.500183,442.580109 
	C623.505371,443.223724 619.536804,444.264313 617.291443,449.893158 
	C598.424011,497.192688 563.897095,528.597351 517.230408,547.500244 
	C514.403076,548.645508 511.862610,548.544922 509.051971,547.405151 
	C496.195648,542.191162 483.855591,536.025146 471.813354,527.737183 
M508.303223,243.648590 
	C504.332306,245.033676 499.930054,245.851059 498.519989,250.647766 
	C500.269745,252.596512 502.691376,249.845184 504.391418,252.299393 
	C502.136322,253.900208 499.693970,255.260468 497.736389,257.128662 
	C495.782013,258.993866 492.693481,260.539398 493.716217,264.295593 
	C497.674713,264.860840 500.831665,261.399200 505.008850,262.631866 
	C486.703003,275.804810 482.357086,285.372925 491.676270,291.567657 
	C492.672546,290.293030 492.510864,288.754578 492.725037,287.291229 
	C494.856445,272.729584 510.591034,266.347717 522.071411,275.400970 
	C525.518250,278.119141 528.318665,281.378632 529.879333,285.574554 
	C530.626526,287.583374 531.202576,289.772675 534.210083,290.174286 
	C535.994934,288.673431 536.717834,286.533691 536.831909,284.160156 
	C537.277954,274.876190 530.185730,269.950897 524.576843,264.120483 
	C527.656555,262.290863 529.457825,265.789154 532.251709,264.978241 
	C531.499756,260.309052 526.847290,258.974609 524.381165,255.492447 
	C527.905273,253.680206 526.503113,251.314301 524.808899,249.207458 
	C520.761047,244.173798 515.197937,243.029114 508.303223,243.648590 
M548.030701,283.422699 
	C548.635803,285.222900 548.634094,287.465668 551.212097,287.905365 
	C553.477356,285.706177 551.990784,281.900696 554.962158,279.772308 
	C557.056519,281.986115 556.708862,285.673279 559.528442,287.257935 
	C562.849915,289.124695 565.044739,284.588715 568.518005,285.562408 
	C567.370544,290.369659 559.762024,293.926666 565.970520,300.000031 
	C568.160828,298.336609 570.380371,296.874268 572.341064,295.122253 
	C579.763977,288.489166 584.661133,288.250275 593.039673,294.336639 
	C594.260925,295.223785 595.487305,296.511108 596.971558,295.202545 
	C598.302734,294.028992 597.808777,292.416809 597.062622,291.059296 
	C594.308411,286.048950 589.951965,282.810944 585.012024,280.187714 
	C583.829346,279.559692 581.886963,279.694061 581.818787,277.364899 
	C586.164001,276.302704 589.816040,280.491302 594.438232,279.195923 
	C594.218811,274.481934 590.666504,272.748108 587.660400,270.499176 
	C584.584473,268.197968 580.423706,268.173035 576.828857,265.935699 
	C580.897034,263.365448 584.688782,267.115082 588.041382,264.828125 
	C587.045044,261.738098 587.045044,261.738068 585.578430,260.826935 
	C578.448914,256.397644 569.325867,257.804565 563.976440,264.339447 
	C560.489380,268.599182 557.323975,273.179413 551.746277,274.967438 
	C547.760376,276.245178 546.623779,278.860504 548.030701,283.422699 
M439.356812,285.925690 
	C430.586517,291.336578 427.048279,297.577148 430.816223,301.806671 
	C439.633179,291.566437 448.795471,292.422821 457.253387,301.776306 
	C462.498535,298.044312 458.898865,294.174591 458.455475,290.507812 
	C466.585693,291.708679 466.585693,291.708679 470.956909,284.515778 
	C472.717255,284.152527 473.322418,287.011383 475.658417,285.949799 
	C477.144012,282.542969 474.699371,279.855560 472.479065,278.311493 
	C468.042358,275.226044 464.385468,271.509277 460.786346,267.575226 
	C455.341522,261.623779 446.546936,260.768494 439.925537,265.330627 
	C438.331024,266.429230 436.488129,267.615845 437.918732,270.245270 
	C441.081818,271.104065 444.546997,268.443909 448.822357,271.225494 
	C440.225708,273.451050 433.382721,276.617432 430.230774,285.317017 
	C435.749146,284.979492 439.733704,280.735901 445.841217,282.273956 
	C443.338531,283.680542 441.654236,284.627167 439.356812,285.925690 
M620.004700,304.635712 
	C615.990173,303.539642 611.890808,302.681335 607.983215,301.285858 
	C603.355896,299.633301 602.557983,303.038452 601.370361,305.868652 
	C599.812073,309.582306 602.921997,310.074127 605.210632,310.741089 
	C611.922546,312.696991 618.647461,314.637878 625.445251,316.257660 
	C629.525391,317.229858 631.059753,319.414276 631.331299,323.566467 
	C632.310547,338.541901 632.485107,353.522217 632.313171,368.516327 
	C632.290222,370.515198 632.274719,372.515747 632.329651,374.513519 
	C632.411072,377.475708 634.318970,378.402100 636.932617,378.708191 
	C639.752808,379.038513 640.911743,377.623352 641.186035,375.088440 
	C641.364746,373.436554 641.609314,371.782349 641.642639,370.125549 
	C642.007812,351.962402 641.494019,333.815277 640.744202,315.668121 
	C640.613831,312.512695 639.436951,310.653870 636.513916,309.755219 
	C631.264709,308.141449 626.019165,306.515900 620.004700,304.635712 
M612.645935,405.235657 
	C610.241699,407.988708 610.971375,410.284393 613.535034,412.500183 
	C621.050049,418.995453 621.736572,421.890137 618.236389,431.646179 
	C617.792480,432.883667 616.881104,434.192139 618.382751,435.215546 
	C619.679871,436.099548 620.990967,435.446503 622.064514,434.606995 
	C625.954346,431.565155 627.659607,427.289307 628.712097,422.645996 
	C629.131897,420.794220 628.956482,418.699066 630.790833,417.089569 
	C633.535706,420.241302 631.232117,424.297668 632.821960,427.794769 
	C639.586426,423.483368 638.701599,415.956940 640.765564,409.569855 
	C643.190430,411.528320 642.169434,414.488007 644.151672,416.084747 
	C644.605103,415.894745 645.158875,415.823669 645.465637,415.510590 
	C652.248535,408.587433 648.613586,392.372559 639.538635,388.917603 
	C638.396729,388.482849 637.267273,388.117554 636.287048,389.088715 
	C635.108093,390.256714 635.036987,391.725769 635.394165,393.276581 
	C635.846252,395.239807 637.277527,397.198975 635.274719,399.923309 
	C630.125671,394.276093 625.013306,396.504303 620.005554,399.837891 
	C617.676758,401.388184 615.473206,403.126617 612.645935,405.235657 
M509.584778,296.112122 
	C509.816132,292.645660 509.541199,289.150391 510.429352,285.718842 
	C510.812683,284.237854 510.626007,282.568390 509.021484,281.839203 
	C507.619995,281.202271 506.503326,282.333038 505.484283,283.138367 
	C502.553192,285.454865 501.286163,288.554260 501.213165,292.261444 
	C501.034119,301.349548 503.491119,309.603607 508.576202,317.136200 
	C510.663757,310.379944 508.162384,303.628693 509.584778,296.112122 
M588.662720,305.910309 
	C588.606689,305.250214 588.661804,304.556519 588.474304,303.936188 
	C587.856018,301.890594 587.428162,299.284607 584.660706,299.465851 
	C581.303345,299.685699 582.390991,302.641235 582.435486,304.533508 
	C582.609009,311.897766 581.818787,319.079773 579.426208,326.083862 
	C579.008118,327.307770 578.087097,328.820801 579.889221,330.483826 
	C585.601135,323.463898 588.783936,315.755341 588.662720,305.910309 
M445.536316,321.697784 
	C445.015656,317.419403 444.521027,313.137604 443.961334,308.864349 
	C443.740417,307.177643 444.450745,304.676361 441.855988,304.501740 
	C439.229584,304.325012 438.724640,306.837982 438.574585,308.732513 
	C437.967133,316.400787 439.593781,323.607910 443.933502,330.039673 
	C444.967041,331.571442 445.563660,333.805420 448.419586,333.899078 
	C448.694305,329.746704 446.065155,326.376007 445.536316,321.697784 
M589.789307,427.280121 
	C588.128052,427.611206 586.058472,426.870605 585.037292,429.013672 
	C590.597900,433.051300 606.536865,431.797485 611.192505,427.072205 
	C612.438721,425.807404 612.621277,424.570404 611.779236,423.059204 
	C610.864136,421.417023 609.509521,421.913116 608.313538,422.426727 
	C602.635437,424.865204 596.714050,426.362793 589.789307,427.280121 
z"/>
<path fill="#000000" opacity="1.000000" stroke="none" 
	d="
M400.680664,672.458984 
	C341.003723,649.770691 293.149719,612.234192 255.806549,561.198669 
	C225.922607,520.357422 207.830582,474.627808 200.607849,424.574646 
	C199.633835,417.824738 198.754379,411.058655 197.992737,404.281860 
	C197.646561,401.201508 197.235870,398.054626 198.164398,395.004456 
	C200.608612,394.507080 201.651520,396.319092 203.001404,397.404083 
	C208.213882,401.593689 213.619308,405.494049 219.789825,408.144196 
	C222.674301,409.383026 224.019745,411.134674 224.477585,414.417694 
	C237.036896,504.477783 282.181274,573.895020 358.191895,623.153259 
	C395.389771,647.259216 436.519257,661.078003 480.637054,665.936951 
	C536.724060,672.114136 590.531372,663.519409 640.778320,638.083435 
	C725.652283,595.118713 778.263062,526.510193 798.566406,433.427521 
	C800.333862,425.324280 801.248840,417.026398 802.344971,408.790344 
	C802.708984,406.055573 803.977295,404.309509 806.097229,402.699921 
	C814.994202,395.944794 821.057068,387.192078 824.259399,376.446899 
	C824.773682,374.721252 824.589294,371.744080 827.468201,372.284515 
	C830.151917,372.788330 829.243164,375.533417 829.228882,377.360443 
	C828.738281,440.089264 812.049683,498.046936 777.222839,550.375061 
	C742.174866,603.035461 695.716553,642.341492 637.481384,667.418701 
	C609.303040,679.552795 579.924683,687.104553 549.406616,690.467224 
	C498.531830,696.072937 449.082214,690.308960 400.680664,672.458984 
z"/>
<path fill="#000000" opacity="1.000000" stroke="none" 
	d="
M434.233521,94.373604 
	C383.275299,108.621422 339.668121,134.611420 302.988464,172.071091 
	C266.329498,209.509644 241.814056,253.962189 228.747101,304.079620 
	C226.349762,304.967651 225.414597,303.838593 224.384369,303.068542 
	C219.565125,299.466370 215.304443,295.255219 211.021240,291.044220 
	C208.271332,288.340637 207.954437,285.754517 209.103500,282.114166 
	C233.354065,205.287048 279.915894,145.917130 348.712097,104.148788 
	C389.333099,79.486526 433.500153,64.692276 480.792450,60.127594 
	C539.960876,54.416630 596.668213,63.860409 650.377808,89.848076 
	C719.023621,123.062737 769.264282,174.517548 801.624634,243.373032 
	C815.456970,272.805237 823.882080,303.899078 827.437439,336.286682 
	C827.929138,340.765656 828.258545,345.230225 828.426453,349.719025 
	C828.480225,351.155029 828.977905,352.740112 827.414917,353.782043 
	C824.852661,353.505951 824.890381,351.346100 824.394958,349.704437 
	C820.681824,337.401459 813.379517,327.778229 802.744141,320.664642 
	C800.570007,319.210449 799.181885,317.590515 798.610474,314.832275 
	C784.531189,246.866074 749.592896,191.597122 696.010925,148.004089 
	C658.469971,117.461655 615.624634,97.894684 568.107056,88.757698 
	C523.210693,80.124779 478.682587,81.821159 434.233521,94.373604 
z"/>
<path fill="#000000" opacity="1.000000" stroke="none" 
	d="
M791.217041,410.446167 
	C793.290588,409.848938 794.776245,408.485535 798.087402,409.121277 
	C786.179871,497.936737 743.833130,567.814331 669.175842,617.241821 
	C571.757935,681.738098 443.461365,679.075928 347.541351,611.383728 
	C300.829132,578.418274 267.017883,535.121399 245.943390,481.949829 
	C237.101944,459.642578 231.291687,436.592865 228.676071,412.622894 
	C235.949585,412.412903 237.418167,413.414734 238.144577,418.672089 
	C243.446259,457.042175 256.753357,492.502441 277.552856,525.072510 
	C312.709625,580.124695 361.328796,618.424561 422.963043,639.909302 
	C457.316284,651.884277 492.757019,656.357056 529.178467,654.178223 
	C591.941223,650.423645 647.201233,628.164490 694.601196,587.157959 
	C744.226624,544.226135 774.932129,490.137909 786.716919,425.461884 
	C787.402161,421.701477 788.065063,417.935120 788.625549,414.154816 
	C788.859436,412.577057 789.214172,411.215546 791.217041,410.446167 
z"/>
<path fill="#000000" opacity="1.000000" stroke="none" 
	d="
M763.563599,233.490753 
	C778.117493,259.157654 788.571106,285.959229 794.292419,314.658386 
	C787.818726,315.378937 785.274231,313.691162 783.896057,307.946686 
	C773.222656,263.457886 752.434326,224.190277 722.008301,190.186951 
	C680.447876,143.740189 628.950989,113.446678 567.802185,101.902100 
	C482.227661,85.746048 404.264954,104.547791 336.088104,159.322693 
	C288.081696,197.892166 256.908081,247.786575 241.361023,307.399780 
	C240.867172,309.293365 240.753189,311.340790 239.217911,312.787750 
	C232.434509,310.783752 231.487213,309.296021 233.270004,302.874451 
	C246.998962,253.423599 271.048553,209.834686 307.438812,173.404175 
	C350.097168,130.698669 400.923065,102.518784 460.513123,92.641815 
	C563.247375,75.613770 651.437134,104.970413 724.150024,179.717392 
	C739.658997,195.660172 752.486389,213.751495 763.563599,233.490753 
z"/>
<path fill="#000000" opacity="1.000000" stroke="none" 
	d="
M212.579987,339.710846 
	C211.707291,338.742188 211.034042,338.019165 210.360779,337.296143 
	C212.543823,342.930176 216.101288,347.654999 219.995682,352.118713 
	C230.199936,363.814758 240.029205,375.766418 246.662064,389.967377 
	C248.492813,393.886993 250.325562,397.817261 251.893478,401.845337 
	C254.084488,407.474121 253.207123,408.674713 247.013458,408.077148 
	C232.932098,406.718597 220.153793,401.886902 209.015289,393.042175 
	C194.370102,381.412933 187.361664,365.345947 183.937775,347.681427 
	C180.095993,327.861053 180.383392,307.954834 185.838745,288.337372 
	C186.798325,284.886688 187.230118,281.175903 189.506409,278.482056 
	C190.872345,278.114166 191.499786,278.758484 191.952744,279.417664 
	C204.282852,297.361023 221.374756,310.054016 239.003754,322.160461 
	C255.936279,333.788544 266.768036,349.199371 268.823853,370.102509 
	C269.724945,379.264526 268.080963,387.999878 264.742157,396.483124 
	C264.381042,397.400665 263.846405,398.266052 263.283691,399.080658 
	C263.037048,399.437714 262.517456,399.606201 262.155090,399.838928 
	C260.090240,399.264526 259.909943,397.419342 259.251099,395.970825 
	C251.897736,379.804321 241.462936,365.980255 228.056671,354.321259 
	C222.786209,349.737762 217.861557,344.756561 212.579987,339.710846 
z"/>
<path fill="#000000" opacity="1.000000" stroke="none" 
	d="
M428.535278,137.600479 
	C427.516754,133.235779 429.046661,131.275589 433.109955,130.745850 
	C453.574097,128.077896 474.032318,125.360085 494.469940,122.497566 
	C498.802551,121.890732 501.228546,122.894791 501.446564,127.657234 
	C501.582916,130.635742 502.140015,133.598358 502.568054,136.559464 
	C503.553131,143.374725 503.262512,143.913177 496.380280,144.864487 
	C485.006775,146.436600 473.624115,147.960037 462.219482,149.280823 
	C457.773743,149.795670 455.814301,150.986954 456.946747,156.185608 
	C459.042267,165.805252 458.688568,165.927826 468.537140,164.838409 
	C477.140228,163.886795 485.739838,162.891373 494.322601,161.774200 
	C498.709290,161.203232 501.489288,162.340286 501.685059,167.286087 
	C501.770233,169.438339 502.154236,171.578888 502.404510,173.724503 
	C503.411591,182.358063 503.390594,182.253799 494.512970,183.327209 
	C484.766510,184.505692 475.061707,186.032715 465.311188,187.171860 
	C461.981567,187.560867 461.031219,189.004425 461.585266,192.117813 
	C464.443573,208.180054 461.333008,205.007492 476.469879,203.070801 
	C485.878632,201.866974 495.237823,200.280807 504.632446,198.960007 
	C510.251770,198.169983 511.363037,199.091736 512.112732,204.752975 
	C512.549377,208.050171 512.817444,211.373688 513.366882,214.650894 
	C514.031860,218.617126 512.453674,220.520401 508.507690,221.078323 
	C492.196411,223.384628 475.903961,225.823669 459.600922,228.188644 
	C455.319550,228.809708 451.002594,229.210602 446.742737,229.948029 
	C442.377350,230.703705 440.186462,229.154205 439.627045,224.667786 
	C436.724060,201.386642 433.697601,178.120911 430.718658,154.849228 
	C430.000519,149.239105 429.299713,143.626755 428.535278,137.600479 
z"/>
<path fill="#000000" opacity="1.000000" stroke="none" 
	d="
M602.049011,191.418793 
	C605.564087,215.557297 589.242493,231.494720 563.440918,229.034744 
	C547.392639,227.504654 533.130249,221.544830 521.924377,209.430389 
	C516.753601,203.840424 516.738281,202.973206 521.744507,197.490829 
	C523.990784,195.030960 526.229187,192.562668 528.415955,190.050140 
	C531.210144,186.839630 533.600708,186.628601 536.469604,190.251419 
	C542.083862,197.340912 549.519592,202.028961 557.890381,205.294113 
	C561.373779,206.652847 564.985840,207.028503 568.689392,206.748169 
	C571.388794,206.543823 573.592834,205.467468 574.519958,202.805603 
	C575.406738,200.259247 574.826172,197.841003 573.002869,195.832413 
	C570.945435,193.565918 568.238586,192.253906 565.547668,190.906784 
	C558.260376,187.258575 550.497314,184.594498 543.662476,180.001389 
	C532.231201,172.319366 528.331543,163.501587 530.921631,150.657120 
	C533.419556,138.269714 542.123779,128.989639 554.369873,126.916100 
	C574.965332,123.428818 592.792480,129.714539 608.233643,143.436218 
	C610.849915,145.761108 611.081909,147.965378 608.555786,150.632416 
	C605.583618,153.770355 602.743958,157.059433 600.112000,160.486664 
	C597.479370,163.914780 595.198303,164.266098 592.038025,161.001984 
	C585.458740,154.206467 577.304871,150.330734 567.967773,148.786713 
	C565.347717,148.353439 562.937195,148.639450 560.730652,149.889130 
	C557.395508,151.778076 556.549927,154.529465 558.783020,157.831726 
	C560.413513,160.242889 562.818176,161.761246 565.379700,163.039154 
	C572.383179,166.533127 579.478088,169.857574 586.364563,173.568771 
	C593.602356,177.469345 599.293335,182.937302 602.049011,191.418793 
z"/>
<path fill="#000000" opacity="1.000000" stroke="none" 
	d="
M391.046204,223.117493 
	C376.622375,230.492813 376.685303,230.460892 383.857025,244.599289 
	C389.417633,255.561523 390.985931,253.691742 379.011658,260.134399 
	C376.667542,261.395630 374.312927,262.637695 371.976257,263.912537 
	C366.436462,266.934906 365.414032,266.660767 362.395966,260.864380 
	C354.790039,246.256699 347.218262,231.631165 339.669983,216.993591 
	C334.104126,206.200333 328.641693,195.353531 323.036865,184.580704 
	C321.314972,181.271133 321.163788,178.737473 324.981171,176.773636 
	C338.293915,169.924927 351.371185,162.593979 364.862610,156.123230 
	C381.308289,148.235550 398.425476,153.233932 408.272217,168.068146 
	C418.923096,184.113815 417.231232,202.364761 403.899109,214.825562 
	C400.214996,218.268936 395.769257,220.579178 391.046204,223.117493 
M380.649628,203.181396 
	C381.912537,202.377258 383.276642,201.695312 384.420776,200.747772 
	C389.248108,196.749939 390.201202,190.139297 386.937134,183.938156 
	C384.034149,178.423065 378.410522,175.584915 372.700897,177.866852 
	C366.446991,180.366287 360.595856,183.873520 354.119324,187.170593 
	C357.870850,194.479111 361.292267,201.115814 364.683746,207.767807 
	C365.803436,209.963974 367.367462,209.837128 369.260712,208.869324 
	C372.820099,207.049835 376.417572,205.304840 380.649628,203.181396 
z"/>
<path fill="#000000" opacity="1.000000" stroke="none" 
	d="
M629.147339,163.688812 
	C630.310303,157.526749 633.714783,152.699417 636.289795,147.506302 
	C638.014404,144.028244 640.628479,145.492188 643.091431,146.734650 
	C660.492004,155.512436 677.897156,164.281082 695.304871,173.044647 
	C699.765320,175.290161 704.189392,177.617538 708.723755,179.703796 
	C712.642761,181.506943 714.132996,183.764938 711.566467,187.872269 
	C709.541992,191.112137 707.885559,194.589005 706.169617,198.012711 
	C704.403748,201.536087 702.125427,202.396271 698.517212,200.343430 
	C693.454346,197.462952 688.202148,194.913605 683.015198,192.253281 
	C677.123657,189.231598 677.094910,189.235794 674.254456,194.984528 
	C665.106873,213.497971 655.975525,232.019455 646.839600,250.538651 
	C643.529724,257.248108 642.771301,257.510956 636.232605,254.228470 
	C632.957703,252.584488 629.670288,250.965530 626.397888,249.316635 
	C620.297913,246.243011 620.026245,245.672333 623.153931,239.389175 
	C632.431396,220.751083 641.807007,202.161774 651.123840,183.543213 
	C652.001221,181.789917 652.735291,179.964905 653.776550,177.634430 
	C647.212708,174.341095 640.983459,171.243179 634.782837,168.088959 
	C632.732666,167.046036 630.390747,166.357574 629.147339,163.688812 
z"/>
<path fill="#000000" opacity="1.000000" stroke="none" 
	d="
M797.693970,324.145813 
	C809.323547,331.300079 817.109558,340.914062 819.592529,354.165497 
	C820.412598,358.542542 822.502686,359.798859 826.692566,359.784485 
	C829.560059,359.774658 834.543518,357.682312 834.587952,362.925507 
	C834.636780,368.697937 829.357727,366.131134 826.448425,366.218048 
	C822.532715,366.335052 820.597534,367.240784 819.650757,371.463348 
	C815.362366,390.588409 803.106201,402.168457 784.291199,406.697601 
	C780.221985,407.677124 778.532532,409.167664 778.972351,413.261230 
	C779.166199,415.064850 778.982666,416.926208 778.815125,418.747101 
	C778.602112,421.061310 776.994629,421.744507 774.934082,421.675842 
	C772.926697,421.608978 771.916321,420.504028 771.831604,418.517914 
	C771.824524,418.351532 771.768799,418.176941 771.802490,418.020569 
	C773.622498,409.561310 768.708130,407.432587 761.628845,405.220337 
	C745.432129,400.158966 735.435547,388.599060 731.797485,371.969849 
	C730.880371,367.777435 729.223938,365.742767 724.826233,366.284058 
	C723.187988,366.485718 721.497192,366.317749 719.833801,366.242767 
	C717.871460,366.154358 716.781799,365.174072 716.756042,363.106934 
	C716.731018,361.101898 717.750183,359.464783 719.626404,359.855621 
	C729.681030,361.950226 731.141663,355.317200 733.588135,347.899139 
	C738.734619,332.294647 750.304443,322.863861 766.161621,319.234589 
	C770.890930,318.152222 772.284546,316.179901 771.781982,311.856354 
	C771.629211,310.542358 771.778381,309.193390 771.788208,307.860443 
	C771.803955,305.717865 772.779968,304.358246 774.984619,304.142029 
	C777.580017,303.887482 778.596497,305.499573 778.798950,307.736450 
	C778.993835,309.888916 779.044373,312.061127 779.032471,314.223969 
	C779.017822,316.878387 779.695923,318.489227 782.847900,318.868713 
	C788.003357,319.489410 792.846924,321.362640 797.693970,324.145813 
M799.967712,385.448792 
	C803.428711,381.339050 806.360840,376.926392 807.648132,371.619568 
	C808.481506,368.184082 807.558960,366.081390 803.526123,366.263977 
	C800.869507,366.384186 798.201965,366.291229 795.539795,366.256134 
	C793.325256,366.226959 790.943054,366.270660 790.899292,363.133057 
	C790.851929,359.736572 793.351746,359.706024 795.778015,359.687592 
	C798.440247,359.667328 801.104309,359.583405 803.764343,359.651642 
	C807.771606,359.754425 808.734131,357.722565 807.621582,354.266785 
	C803.710876,342.119812 795.821045,334.075073 783.340332,330.738312 
	C780.251160,329.912476 778.938293,331.091064 778.927917,334.142365 
	C778.916077,337.636169 778.922974,341.131439 778.820007,344.623047 
	C778.757385,346.745331 777.660095,348.093414 775.412537,348.090240 
	C773.226379,348.087128 771.988281,346.856018 771.873169,344.714081 
	C771.739380,342.224426 771.772339,339.725098 771.760193,337.229858 
	C771.730286,331.064667 770.042358,329.662933 764.285522,331.700165 
	C753.626160,335.472351 747.118042,343.335022 743.570129,353.807892 
	C742.302490,357.549805 743.945129,359.566010 747.876709,359.650299 
	C750.371338,359.703796 752.867676,359.685638 755.363220,359.687286 
	C757.793823,359.688843 759.751282,360.371948 759.726624,363.247345 
	C759.702759,366.030487 757.629822,366.250244 755.514832,366.284485 
	C752.687256,366.330292 749.850098,366.252594 747.035034,366.465729 
	C744.612244,366.649170 743.089844,367.729584 743.310242,370.638824 
	C744.053955,380.455322 757.257202,393.811707 767.228638,394.847260 
	C770.507996,395.187805 771.874268,394.003113 771.770691,390.741333 
	C771.675659,387.749664 771.783325,384.751556 771.801819,381.756287 
	C771.815796,379.498566 772.511230,377.840607 775.154724,377.755127 
	C777.542908,377.677917 778.426147,379.187988 778.605347,381.174072 
	C778.858704,383.983429 778.914246,386.811737 779.017334,389.633301 
	C779.230896,395.479340 780.469360,396.332611 786.106323,394.412994 
	C791.235352,392.666351 795.721069,389.887543 799.967712,385.448792 
z"/>
<path fill="#000000" opacity="1.000000" stroke="none" 
	d="
M297.056122,525.205566 
	C292.171478,529.455261 290.963623,524.666077 288.815674,522.369141 
	C286.498810,519.891724 286.801544,517.851685 289.569183,515.789368 
	C299.049591,508.724945 308.479370,501.590515 317.833740,494.360321 
	C320.677643,492.162231 322.404419,492.492096 324.853882,495.263031 
	C328.904083,499.844818 330.075073,504.047607 326.235687,509.344238 
	C324.106873,512.281067 322.681763,515.736755 321.020966,519.000122 
	C320.221832,520.570251 318.924042,522.083618 319.832855,524.088745 
	C321.451202,525.175659 323.046417,524.550598 324.639740,524.121765 
	C328.174347,523.170532 331.706329,522.209534 335.244110,521.270325 
	C343.276703,519.137878 346.665436,520.761108 350.224640,528.166626 
	C351.130554,530.051453 350.723053,531.392212 349.250092,532.531616 
	C338.848419,540.578003 328.554901,548.774109 317.941528,556.532043 
	C313.687958,559.641174 312.987549,554.284607 310.999115,552.450623 
	C309.106934,550.705505 308.537170,548.669495 311.237305,546.647644 
	C315.577606,543.397705 320.224792,540.470276 324.358185,535.706543 
	C319.174011,535.990479 314.936157,537.231262 310.633972,538.122192 
	C308.204803,538.625183 305.770660,539.103943 303.819458,536.586243 
	C301.841919,534.034546 302.428314,531.811462 303.670929,529.203796 
	C305.571899,525.214661 308.474762,521.694031 310.035736,516.076965 
	C304.401031,518.331299 301.502625,522.628296 297.056122,525.205566 
z"/>
<path fill="#000000" opacity="1.000000" stroke="none" 
	d="
M614.556641,607.430542 
	C613.671082,605.289673 612.904480,603.502930 611.764099,600.844971 
	C610.654480,606.457825 610.195496,611.157837 610.237183,615.916077 
	C610.264771,619.069153 609.707764,621.691345 606.287537,623.216248 
	C602.723633,624.805176 601.016235,622.562195 599.093811,620.524780 
	C596.019592,617.266541 593.024963,613.933289 589.413269,611.017944 
	C589.238892,616.443176 591.555603,620.975830 593.690735,625.367737 
	C595.880127,629.870911 594.114441,631.450256 590.277100,633.140259 
	C586.181213,634.944092 584.253906,633.724976 582.770142,629.808594 
	C578.523499,618.600220 574.087585,607.462708 569.635132,596.333740 
	C568.611206,593.774475 569.234131,592.437683 571.763611,591.297913 
	C579.937805,587.614685 580.938782,587.711914 587.425720,594.010437 
	C591.304626,597.776672 595.196106,601.529846 600.158936,606.330627 
	C600.752991,598.427002 601.327148,592.038147 601.684875,585.637207 
	C601.975769,580.432007 607.710083,575.292847 612.955627,575.650818 
	C614.920776,575.784973 615.388123,577.257690 615.908325,578.597290 
	C620.487305,590.389038 624.946838,602.227478 629.578430,613.998291 
	C631.039734,617.711914 628.374023,618.366150 626.064209,619.143555 
	C623.461975,620.019409 620.379517,622.568542 618.546204,618.064514 
	C617.166260,614.674438 615.959534,611.213867 614.556641,607.430542 
z"/>
<path fill="#000000" opacity="1.000000" stroke="none" 
	d="
M375.315552,599.308350 
	C380.533264,589.225525 385.540344,579.440979 390.650940,569.710754 
	C391.670380,567.769775 392.263580,564.445557 395.151428,565.236816 
	C398.495758,566.153198 402.494080,567.112732 403.336578,571.545776 
	C404.763702,579.055298 406.082642,586.585327 407.485748,594.099487 
	C407.634003,594.893250 408.040710,595.638733 408.509125,596.892822 
	C412.485107,592.243713 414.426697,586.909424 417.034058,582.000122 
	C418.689453,578.883179 420.226929,577.107422 423.906952,579.452515 
	C427.048004,581.454102 430.404541,582.424927 427.471710,587.593018 
	C421.972778,597.282898 417.302124,607.440063 412.133789,617.322754 
	C411.084351,619.329468 410.647217,622.979065 407.303162,621.955750 
	C403.640411,620.834778 399.580475,619.682434 398.933044,614.573486 
	C398.118561,608.146606 396.878754,601.773438 395.819092,595.377686 
	C395.603638,594.077148 395.534546,592.704285 393.856262,591.659180 
	C391.216156,592.936218 390.560730,595.848694 389.228271,598.180725 
	C388.073273,600.202209 387.112701,602.334534 386.058014,604.413635 
	C383.462036,609.531250 377.313782,609.918945 374.101135,605.149353 
	C372.652893,602.999329 374.505219,601.414001 375.315552,599.308350 
z"/>
<path fill="#000000" opacity="1.000000" stroke="none" 
	d="
M707.515747,544.489746 
	C708.349915,545.330444 709.069336,545.837402 709.499084,546.525391 
	C710.872375,548.723877 714.889832,549.606445 713.375732,553.212158 
	C711.678162,557.254700 706.720886,559.383667 702.316284,558.758240 
	C695.008118,557.720459 687.843384,555.549744 679.161194,555.369324 
	C682.977478,560.695251 686.890503,564.450195 690.830078,568.082275 
	C694.253418,571.238464 693.881958,573.336670 690.629150,576.495239 
	C687.377319,579.652954 685.293640,579.909912 682.131958,576.517029 
	C674.647217,568.485168 666.816467,560.776672 659.230347,552.837402 
	C657.759155,551.297729 654.615417,549.822571 656.434021,547.228210 
	C658.329285,544.524475 660.415100,541.097534 664.593201,541.576538 
	C671.190491,542.332886 677.760803,543.330994 684.335510,544.274963 
	C686.100647,544.528320 687.841553,544.993347 690.614319,544.085144 
	C686.452332,539.897400 682.967163,535.947021 679.013733,532.539978 
	C675.207031,529.259460 676.407715,527.028442 679.342407,524.021790 
	C682.266357,521.026184 684.367249,520.438721 687.473511,523.804688 
	C693.903137,530.771790 700.651245,537.444885 707.515747,544.489746 
z"/>
<path fill="#000000" opacity="1.000000" stroke="none" 
	d="
M517.772278,638.628784 
	C500.932831,650.095459 481.865906,643.269470 478.155579,624.793335 
	C476.301300,615.559753 480.975616,604.918579 488.921875,600.283752 
	C497.933533,595.027405 509.525848,595.830811 516.951599,602.370483 
	C518.723755,603.931213 521.211731,605.499207 519.053345,608.557373 
	C516.513733,612.155640 513.201904,613.062439 509.950684,610.971680 
	C504.068909,607.189148 497.983429,607.231812 493.845490,611.084534 
	C489.935333,614.725220 488.964630,622.170837 491.730164,627.309692 
	C494.510925,632.476868 502.311096,634.880066 507.427032,632.143494 
	C508.657745,631.485107 509.732849,630.659058 509.471954,629.070068 
	C509.180115,627.292542 507.690521,627.298340 506.368225,627.295654 
	C502.734924,627.288147 499.581818,626.870239 499.849609,621.987793 
	C500.033234,618.640076 501.202087,616.638245 504.975311,616.871216 
	C508.793060,617.106934 512.626099,617.094849 516.452454,617.190674 
	C519.705994,617.272095 521.470764,618.844482 521.158813,622.189636 
	C520.646545,627.682190 522.130554,633.569214 517.772278,638.628784 
z"/>
<path fill="#000000" opacity="1.000000" stroke="none" 
	d="
M552.538513,612.473816 
	C554.433716,612.148376 555.946655,612.035645 557.378723,611.634583 
	C562.301025,610.255981 563.381409,613.114624 563.947571,617.110840 
	C564.598083,621.702026 561.519226,621.866821 558.456604,622.254395 
	C555.487549,622.630188 552.523071,623.050659 549.547363,623.363831 
	C546.606506,623.673340 544.874573,624.891479 545.339111,628.181946 
	C545.821350,631.597412 548.329468,630.728027 550.339417,630.484436 
	C554.796509,629.944336 559.248718,629.306458 563.664612,628.499329 
	C568.391357,627.635620 568.153198,631.143616 568.822205,633.981384 
	C569.561218,637.116089 568.277527,638.740479 565.183167,639.170959 
	C556.455017,640.385254 547.718872,641.548218 539.008606,642.880554 
	C535.829468,643.366882 534.908203,641.890442 534.579163,639.093567 
	C533.354065,628.682922 531.794617,618.307800 530.760803,607.879639 
	C529.792664,598.113586 530.007690,598.041016 539.988953,596.443298 
	C545.902893,595.496704 551.860535,594.822205 557.772766,593.866577 
	C561.320923,593.292969 562.653809,595.120422 563.050842,598.183044 
	C563.419617,601.027710 564.094360,603.984802 559.731140,604.474670 
	C555.765930,604.919861 551.839600,605.699585 547.882019,606.225952 
	C542.299927,606.968445 542.164978,607.138000 543.968079,613.287781 
	C546.615784,613.049561 549.367432,612.801941 552.538513,612.473816 
z"/>
<path fill="#000000" opacity="1.000000" stroke="none" 
	d="
M660.173096,578.109375 
	C656.446411,580.684937 653.040039,583.075806 649.599243,585.415833 
	C647.626648,586.757446 647.043884,588.221436 648.463196,590.425354 
	C649.914673,592.679260 651.438354,592.636719 653.439758,591.269775 
	C657.151123,588.735046 660.973877,586.361572 664.654907,583.784912 
	C667.444336,581.832397 669.457214,582.253540 671.249634,585.150696 
	C672.938110,587.879883 674.422546,590.182739 670.607544,592.611206 
	C663.449341,597.167786 656.466797,602.002808 649.461182,606.794922 
	C647.201294,608.340820 645.610596,608.065613 644.106201,605.732788 
	C637.159485,594.960999 630.164795,584.219849 623.124390,573.508972 
	C621.705078,571.349670 622.147522,569.866882 624.199402,568.529114 
	C631.589966,563.710632 638.964233,558.867004 646.331055,554.012329 
	C649.559448,551.884827 650.796448,554.407959 652.118591,556.512390 
	C653.390442,558.536804 655.550659,560.611816 652.183716,562.783508 
	C648.547180,565.129028 644.934631,567.517273 641.394714,570.005066 
	C639.469971,571.357788 636.616882,572.398560 638.926758,575.751709 
	C641.190857,579.038452 643.284119,576.804810 645.296814,575.639954 
	C648.175598,573.973816 650.912720,572.064148 653.729980,570.289673 
	C655.464905,569.196899 657.478088,567.933044 658.878601,570.391846 
	C660.153931,572.631165 664.165894,574.535950 660.173096,578.109375 
z"/>
<path fill="#000000" opacity="1.000000" stroke="none" 
	d="
M333.545074,574.770996 
	C330.261230,572.765808 327.319916,570.917114 325.880035,567.712952 
	C326.408112,565.793518 327.951904,565.350403 329.233185,564.649292 
	C340.755585,558.344177 352.334106,552.139709 363.790466,545.717102 
	C366.762939,544.050720 369.110962,544.280884 371.414429,546.569092 
	C373.740051,548.879395 377.771851,550.065796 376.279968,554.790405 
	C372.027588,568.257080 367.916595,581.768372 363.714935,595.251160 
	C363.481812,595.999268 362.931488,596.648499 362.549469,597.307983 
	C355.421448,594.759399 353.118469,591.306580 354.215088,584.779785 
	C354.456848,583.340942 354.467072,582.148499 353.277985,581.185425 
	C350.047913,578.569214 346.794617,575.981506 343.579620,573.346985 
	C341.980988,572.036926 340.537231,572.606628 338.998627,573.474304 
	C337.430359,574.358643 335.905945,575.538757 333.545074,574.770996 
M359.323242,568.716980 
	C360.653381,566.630371 361.587006,564.445679 361.222839,561.546082 
	C357.472565,561.644836 354.182007,562.764648 353.774353,566.416138 
	C353.528046,568.622437 355.892456,570.419067 359.323242,568.716980 
z"/>
<path fill="#000000" opacity="1.000000" stroke="none" 
	d="
M432.551880,611.578552 
	C437.779968,604.873169 442.865845,598.506897 447.740265,591.982727 
	C449.387756,589.777649 451.232727,588.952820 453.722656,589.842163 
	C456.706116,590.907837 461.054688,590.448608 461.717987,594.639587 
	C464.045715,609.347107 466.034302,624.108337 468.142975,638.789062 
	C460.772736,640.439880 456.469116,637.939026 454.897522,631.567688 
	C454.612122,630.410706 454.493011,629.073303 453.238739,628.707825 
	C448.461273,627.315674 443.647919,626.044128 438.833221,624.784058 
	C437.734741,624.496460 437.033813,625.266541 436.296814,626.001953 
	C431.088318,631.199219 428.938141,631.372864 421.085754,626.803650 
	C424.860657,621.784058 428.593811,616.820007 432.551880,611.578552 
M446.596741,611.919189 
	C444.738678,618.783691 450.592590,615.528503 453.002350,617.583130 
	C452.968048,610.587830 452.968048,610.587830 450.774445,607.652466 
	C448.967255,608.316223 448.072021,609.943848 446.596741,611.919189 
z"/>
<path fill="#000000" opacity="1.000000" stroke="none" 
	d="
M715.071655,520.949829 
	C711.853394,518.538513 708.878357,516.393372 705.997681,514.128235 
	C703.685181,512.309753 701.815186,512.396423 700.247864,515.025269 
	C699.736633,515.882690 699.139893,516.688965 698.585510,517.520874 
	C695.222107,522.568237 691.622620,522.591248 687.930481,517.732727 
	C686.732727,516.156738 687.293457,514.933044 688.177490,513.671021 
	C694.199219,505.075012 700.171448,496.442566 706.321106,487.938629 
	C709.261414,483.872620 711.486816,487.870300 713.849976,489.019867 
	C716.493347,490.305725 716.780884,492.038177 715.066101,494.631409 
	C709.952393,502.364685 710.043762,502.435150 717.717041,508.018036 
	C722.835815,511.742371 727.849548,515.629211 733.135803,519.099792 
	C737.734070,522.118652 735.256836,524.714844 733.332886,527.746826 
	C731.347046,530.876465 729.380127,531.892578 726.163025,529.240417 
	C722.696960,526.382996 718.969177,523.842896 715.071655,520.949829 
z"/>
<path fill="#000000" opacity="1.000000" stroke="none" 
	d="
M271.469299,275.422058 
	C264.455963,293.070129 261.939484,311.287598 260.454987,331.213379 
	C255.224991,326.413940 251.086456,322.684326 247.037170,318.860168 
	C245.762146,317.656036 246.312561,316.073578 246.675598,314.609863 
	C251.948944,293.348328 261.690216,274.453491 276.538971,258.269531 
	C277.194977,257.554535 277.839691,256.697418 279.596313,257.112823 
	C276.905487,263.150635 274.252319,269.104004 271.469299,275.422058 
z"/>
<path fill="#000000" opacity="1.000000" stroke="none" 
	d="
M769.034363,456.908661 
	C763.907104,467.900452 758.261169,478.096466 749.431458,486.315277 
	C756.940796,466.424988 763.841248,446.485626 764.507263,424.440948 
	C768.890991,425.875580 772.506531,426.870514 775.967346,428.252991 
	C778.578247,429.295959 777.456909,431.701904 777.083618,433.507324 
	C775.427795,441.516296 772.621155,449.151154 769.034363,456.908661 
z"/>
<path fill="#000000" opacity="1.000000" stroke="none" 
	d="
M523.293701,344.155640 
	C529.477783,341.002106 535.835144,338.842712 540.332825,333.398834 
	C540.664917,337.001953 538.279968,338.573456 536.214233,340.299927 
	C533.240845,342.785034 529.505188,343.987885 526.285095,346.032257 
	C523.153381,348.020538 519.760498,350.178802 523.976013,354.492432 
	C525.403809,355.953430 525.328857,358.124512 524.868652,360.200104 
	C524.021301,364.022095 526.502075,366.126801 529.566956,366.414978 
	C532.671631,366.706909 535.018494,364.545624 534.663330,361.035583 
	C533.614929,350.675110 540.523560,345.043060 547.308960,339.316406 
	C548.405151,338.391266 549.612976,337.192322 551.780945,339.121368 
	C549.404358,342.523682 545.895386,345.054688 543.122620,348.019775 
	C538.988464,352.440765 538.992981,357.672119 538.462036,362.797485 
	C538.061096,366.667480 537.022400,369.460205 533.278137,371.039215 
	C531.102173,371.956848 529.018677,373.275970 529.412354,376.191406 
	C529.840149,379.359589 532.007446,380.084137 534.836731,379.949219 
	C536.766235,379.857239 538.019897,381.068054 538.516907,382.779175 
	C540.994568,391.309814 544.068542,399.420837 553.355103,403.769745 
	C549.112122,405.493744 549.051575,405.559784 544.715698,401.585785 
	C542.319824,399.389984 539.111023,398.006653 538.086609,394.384125 
	C537.260071,391.461121 536.995850,388.195862 534.680542,385.753357 
	C531.143555,389.124481 531.761658,398.468079 535.797852,400.033173 
	C540.624268,401.904785 541.577759,404.816803 540.472107,409.378693 
	C539.850342,411.944733 540.169189,414.769836 539.373108,417.257019 
	C536.197449,427.177795 541.609863,434.033783 547.349487,440.856689 
	C548.233521,441.907654 550.345276,442.847076 548.879517,444.458496 
	C547.218689,446.284515 545.888611,444.362274 544.809631,443.233124 
	C540.762329,438.997589 537.745361,433.988037 534.502441,429.155853 
	C533.503906,427.667938 533.862366,425.944885 534.154602,424.293793 
	C534.937012,419.873322 535.769226,415.460876 536.483154,411.029388 
	C536.740112,409.434479 537.283447,407.380554 535.114441,406.781036 
	C532.821594,406.147369 532.472290,408.283875 531.990356,409.815063 
	C531.291992,412.033844 530.817871,414.322601 530.138000,416.547913 
	C528.661804,421.380188 526.372192,425.818451 523.116577,429.680450 
	C517.906860,435.860321 511.517242,435.910950 506.090668,429.836517 
	C502.341431,425.639679 500.310822,420.533936 498.821777,415.195526 
	C498.285553,413.273254 497.957153,411.292877 497.418365,409.371429 
	C497.021393,407.955597 496.693024,406.197754 494.613556,406.566132 
	C492.540466,406.933411 492.087769,408.543243 492.341980,410.374725 
	C493.004852,415.150543 493.517365,419.961395 494.496582,424.673767 
	C495.069641,427.431641 494.385742,429.512848 492.780823,431.591644 
	C489.736389,435.535004 486.823547,439.581848 483.712311,443.470703 
	C482.751648,444.671509 481.399048,446.534729 479.635651,444.786407 
	C477.949890,443.115051 480.147369,442.345459 480.965820,441.254852 
	C483.862854,437.394501 486.664368,433.462280 489.570526,429.608917 
	C490.694855,428.118134 490.600464,426.595398 490.335724,424.879639 
	C489.498169,419.450928 488.750946,414.006836 488.063568,408.556763 
	C487.585144,404.763428 488.174011,401.515900 492.701080,400.514801 
	C495.155304,399.972137 496.228149,398.180664 496.435150,395.803558 
	C496.622925,393.647064 496.791077,391.487640 496.902283,389.326141 
	C496.978516,387.845337 498.314453,385.773376 495.552612,385.390198 
	C493.267548,385.073120 492.664490,387.091858 492.499359,388.619446 
	C491.715881,395.866608 486.126129,399.564667 481.544403,404.048676 
	C479.901672,405.656311 478.066650,405.508667 476.381989,405.520874 
	C475.420166,403.922668 475.970123,403.065552 476.913788,402.582550 
	C484.141968,398.882904 487.720245,392.612030 489.433014,385.003937 
	C490.217285,381.520233 491.872772,379.225159 495.951721,379.769135 
	C498.483826,380.106812 499.397980,378.230804 500.156769,376.289948 
	C501.079285,373.930328 499.504730,372.572235 497.793823,372.067230 
	C491.499573,370.209351 489.973511,365.335907 489.864319,359.760254 
	C489.713501,352.060760 485.861633,346.632874 480.032928,342.205963 
	C478.888733,341.336945 477.283722,340.721497 477.769287,338.739105 
	C479.016754,337.198242 480.145844,338.246490 481.198944,338.976746 
	C488.750702,344.213501 494.172577,350.655914 494.238159,360.537476 
	C494.263031,364.287598 498.167572,368.083130 500.612030,366.965393 
	C503.603485,365.597565 506.265533,363.445038 504.477081,359.197937 
	C503.827332,357.655029 504.448059,355.739136 505.629303,354.528259 
	C509.430908,350.631256 506.695770,348.236145 503.692749,346.151642 
	C501.523926,344.646240 498.918671,343.785156 496.654694,342.397552 
	C493.427734,340.419800 490.128784,338.406830 489.125793,334.361816 
	C490.457428,333.215698 491.175842,334.127258 491.753082,334.882019 
	C494.282623,338.189667 497.831360,339.970764 501.481812,341.670929 
	C503.433502,342.579926 505.440063,343.520142 507.123535,344.829742 
	C513.878113,350.084503 516.817627,350.061218 523.293701,344.155640 
z"/>
<path fill="#000000" opacity="1.000000" stroke="none" 
	d="
M591.706482,398.396118 
	C589.491272,396.976288 588.194519,394.779694 585.017456,394.398926 
	C585.856262,399.284607 590.981079,399.920807 594.006470,404.163666 
	C588.032837,403.516693 585.610352,399.420074 581.750671,396.743408 
	C581.080627,402.945587 584.670471,407.304504 586.236145,412.344299 
	C578.972656,408.099426 580.183838,399.342407 576.002014,392.907379 
	C572.987915,399.714813 570.167236,406.541412 562.924866,409.985016 
	C566.282959,403.713867 573.546570,399.061096 571.131165,389.319550 
	C567.633057,394.750519 564.896790,399.511841 557.834778,401.968048 
	C561.772949,396.387085 568.259338,393.674072 566.719360,386.441071 
	C562.655334,387.776306 560.874695,392.961884 556.104980,392.805481 
	C555.981812,392.301056 555.809814,391.753967 555.849792,391.738037 
	C561.572388,389.455261 561.271118,383.450623 563.407715,379.061066 
	C564.618958,376.572662 565.171509,374.660431 568.498962,375.006531 
	C571.911499,375.361511 573.492798,372.919342 574.429260,370.046295 
	C576.302368,364.300049 578.933350,358.928528 582.586975,354.120514 
	C583.878845,352.420471 585.515930,350.925537 587.200500,349.597046 
	C588.945007,348.221283 590.996094,347.314453 593.168152,348.821991 
	C595.221313,350.246948 595.496155,352.419556 595.106934,354.634979 
	C594.461609,358.307800 592.613647,361.467346 590.650269,364.590210 
	C589.725525,366.061035 587.966125,367.200470 588.336304,369.561920 
	C592.059143,370.607574 595.479004,368.770294 598.992371,368.250305 
	C603.812622,367.536926 608.608093,367.405334 613.423218,367.881104 
	C615.049683,368.041870 616.942749,368.385498 617.365845,370.358429 
	C617.787598,372.324585 616.245056,373.352417 614.800476,374.227264 
	C609.716614,377.306000 604.134888,378.779785 598.259949,379.351501 
	C594.844177,379.683838 591.338623,379.527191 587.785889,380.840088 
	C588.348206,383.203308 589.174500,385.136993 591.088928,386.355438 
	C593.745483,388.046173 595.071411,390.795197 596.738403,393.253021 
	C597.759949,394.759216 598.761292,396.606598 597.420776,398.341736 
	C595.858765,400.363708 593.867493,399.496887 591.706482,398.396118 
z"/>
<path fill="#000000" opacity="1.000000" stroke="none" 
	d="
M780.238525,352.482117 
	C786.280823,356.480316 788.396118,361.691772 786.420898,366.998199 
	C784.590088,371.916687 779.385742,375.228760 774.239624,374.625397 
	C769.571472,374.078064 766.153564,371.805817 764.553223,367.196289 
	C762.934692,362.534393 763.641968,358.184631 767.046753,354.698639 
	C770.628113,351.031799 775.082703,350.287628 780.238525,352.482117 
z"/>
</svg>